HIERARCHY
ROOT mixamorig:Hips
{
	OFFSET -0.000008 104.274872 1.554316
	CHANNELS 6 Xposition Yposition Zposition Xrotation Yrotation Zrotation
	JOINT mixamorig:Spine
	{
		OFFSET -0.000005 10.181595 0.131519
		CHANNELS 6 Xposition Yposition Zposition Xrotation Yrotation Zrotation
		JOINT mixamorig:Spine1
		{
			OFFSET -0.000000 9.893959 -1.470707
			CHANNELS 6 Xposition Yposition Zposition Xrotation Yrotation Zrotation
			JOINT mixamorig:Spine2
			{
				OFFSET -0.000000 9.220757 -1.370641
				CHANNELS 6 Xposition Yposition Zposition Xrotation Yrotation Zrotation
				JOINT mixamorig:Neck
				{
					OFFSET 0.000001 16.740417 -2.049036
					CHANNELS 6 Xposition Yposition Zposition Xrotation Yrotation Zrotation
					JOINT mixamorig:Head
					{
						OFFSET 0.000000 9.617874 1.685006
						CHANNELS 6 Xposition Yposition Zposition Xrotation Yrotation Zrotation
						JOINT mixamorig:HeadTop_End
						{
							OFFSET 0.000002 22.037354 7.501101
							CHANNELS 6 Xposition Yposition Zposition Xrotation Yrotation Zrotation
							End Site
							{
								OFFSET 0.000168 2310.654297 -282.823242
							}
						}
					}
				}
				JOINT mixamorig:RightShoulder
				{
					OFFSET -4.569970 11.014908 -2.160885
					CHANNELS 6 Xposition Yposition Zposition Xrotation Yrotation Zrotation
					JOINT mixamorig:RightArm
					{
						OFFSET -10.592851 -0.524811 -2.232101
						CHANNELS 6 Xposition Yposition Zposition Xrotation Yrotation Zrotation
						JOINT mixamorig:RightForeArm
						{
							OFFSET -27.841511 0.000031 -0.000004
							CHANNELS 6 Xposition Yposition Zposition Xrotation Yrotation Zrotation
							JOINT mixamorig:RightHand
							{
								OFFSET -28.328831 -0.000015 0.000015
								CHANNELS 6 Xposition Yposition Zposition Xrotation Yrotation Zrotation
								JOINT mixamorig:RightHandThumb1
								{
									OFFSET -2.464806 -1.573990 2.681852
									CHANNELS 6 Xposition Yposition Zposition Xrotation Yrotation Zrotation
									JOINT mixamorig:RightHandThumb2
									{
										OFFSET -3.215179 -1.872803 1.924282
										CHANNELS 6 Xposition Yposition Zposition Xrotation Yrotation Zrotation
										JOINT mixamorig:RightHandThumb3
										{
											OFFSET -2.654831 -1.527969 1.512609
											CHANNELS 6 Xposition Yposition Zposition Xrotation Yrotation Zrotation
											JOINT mixamorig:RightHandThumb4
											{
												OFFSET -2.018814 -1.152008 1.108052
												CHANNELS 6 Xposition Yposition Zposition Xrotation Yrotation Zrotation
												End Site
												{
													OFFSET -188.809540 -114.533607 132.431396
												}
											}
										}
									}
								}
								JOINT mixamorig:RightHandIndex1
								{
									OFFSET -9.108284 -0.517868 2.259835
									CHANNELS 6 Xposition Yposition Zposition Xrotation Yrotation Zrotation
									JOINT mixamorig:RightHandIndex2
									{
										OFFSET -3.699989 0.000000 0.001215
										CHANNELS 6 Xposition Yposition Zposition Xrotation Yrotation Zrotation
										JOINT mixamorig:RightHandIndex3
										{
											OFFSET -2.850006 0.000031 -0.000522
											CHANNELS 6 Xposition Yposition Zposition Xrotation Yrotation Zrotation
											JOINT mixamorig:RightHandIndex4
											{
												OFFSET -2.772186 -0.000015 -0.000020
												CHANNELS 6 Xposition Yposition Zposition Xrotation Yrotation Zrotation
												End Site
												{
													OFFSET -277.218445 0.000000 -0.050231
												}
											}
										}
									}
								}
								JOINT mixamorig:RightHandMiddle1
								{
									OFFSET -9.532516 -0.000031 -0.000023
									CHANNELS 6 Xposition Yposition Zposition Xrotation Yrotation Zrotation
									JOINT mixamorig:RightHandMiddle2
									{
										OFFSET -3.700005 -0.000015 0.003713
										CHANNELS 6 Xposition Yposition Zposition Xrotation Yrotation Zrotation
										JOINT mixamorig:RightHandMiddle3
										{
											OFFSET -2.949974 0.000015 -0.002054
											CHANNELS 6 Xposition Yposition Zposition Xrotation Yrotation Zrotation
											JOINT mixamorig:RightHandMiddle4
											{
												OFFSET -2.946640 0.000000 -0.000156
												CHANNELS 6 Xposition Yposition Zposition Xrotation Yrotation Zrotation
												End Site
												{
													OFFSET -294.664337 0.000000 -0.113670
												}
											}
										}
									}
								}
								JOINT mixamorig:RightHandRing1
								{
									OFFSET -9.103600 -0.043076 -1.865134
									CHANNELS 6 Xposition Yposition Zposition Xrotation Yrotation Zrotation
									JOINT mixamorig:RightHandRing2
									{
										OFFSET -3.379288 0.000000 -0.001055
										CHANNELS 6 Xposition Yposition Zposition Xrotation Yrotation Zrotation
										JOINT mixamorig:RightHandRing3
										{
											OFFSET -2.889687 -0.000015 0.000379
											CHANNELS 6 Xposition Yposition Zposition Xrotation Yrotation Zrotation
											JOINT mixamorig:RightHandRing4
											{
												OFFSET -2.638809 -0.000015 0.000941
												CHANNELS 6 Xposition Yposition Zposition Xrotation Yrotation Zrotation
												End Site
												{
													OFFSET -263.880371 0.000000 0.516020
												}
											}
										}
									}
								}
								JOINT mixamorig:RightHandPinky1
								{
									OFFSET -8.076683 -0.486710 -3.806280
									CHANNELS 6 Xposition Yposition Zposition Xrotation Yrotation Zrotation
									JOINT mixamorig:RightHandPinky2
									{
										OFFSET -3.600014 -0.000015 -0.003747
										CHANNELS 6 Xposition Yposition Zposition Xrotation Yrotation Zrotation
										JOINT mixamorig:RightHandPinky3
										{
											OFFSET -2.099983 0.000000 -0.005739
											CHANNELS 6 Xposition Yposition Zposition Xrotation Yrotation Zrotation
											JOINT mixamorig:RightHandPinky4
											{
												OFFSET -2.115768 -0.000031 -0.003680
												CHANNELS 6 Xposition Yposition Zposition Xrotation Yrotation Zrotation
												End Site
												{
													OFFSET -211.577087 0.000000 -0.350686
												}
											}
										}
									}
								}
							}
						}
					}
				}
				JOINT mixamorig:LeftShoulder
				{
					OFFSET 4.570447 11.014725 -2.160855
					CHANNELS 6 Xposition Yposition Zposition Xrotation Yrotation Zrotation
					JOINT mixamorig:LeftArm
					{
						OFFSET 10.592371 -0.524597 -2.232119
						CHANNELS 6 Xposition Yposition Zposition Xrotation Yrotation Zrotation
						JOINT mixamorig:LeftForeArm
						{
							OFFSET 27.841532 -0.000031 0.000026
							CHANNELS 6 Xposition Yposition Zposition Xrotation Yrotation Zrotation
							JOINT mixamorig:LeftHand
							{
								OFFSET 28.328846 -0.000061 0.000022
								CHANNELS 6 Xposition Yposition Zposition Xrotation Yrotation Zrotation
								JOINT mixamorig:LeftHandThumb1
								{
									OFFSET 2.466141 -1.576172 2.681732
									CHANNELS 6 Xposition Yposition Zposition Xrotation Yrotation Zrotation
									JOINT mixamorig:LeftHandThumb2
									{
										OFFSET 3.217812 -1.872070 1.916482
										CHANNELS 6 Xposition Yposition Zposition Xrotation Yrotation Zrotation
										JOINT mixamorig:LeftHandThumb3
										{
											OFFSET 2.656029 -1.528778 1.514513
											CHANNELS 6 Xposition Yposition Zposition Xrotation Yrotation Zrotation
											JOINT mixamorig:LeftHandThumb4
											{
												OFFSET 2.020889 -1.154053 1.115139
												CHANNELS 6 Xposition Yposition Zposition Xrotation Yrotation Zrotation
												End Site
												{
													OFFSET 190.885437 -115.081749 130.048782
												}
											}
										}
									}
								}
								JOINT mixamorig:LeftHandIndex1
								{
									OFFSET 9.109314 -0.518021 2.259871
									CHANNELS 6 Xposition Yposition Zposition Xrotation Yrotation Zrotation
									JOINT mixamorig:LeftHandIndex2
									{
										OFFSET 3.699989 0.000000 -0.000322
										CHANNELS 6 Xposition Yposition Zposition Xrotation Yrotation Zrotation
										JOINT mixamorig:LeftHandIndex3
										{
											OFFSET 2.850006 0.000000 0.000352
											CHANNELS 6 Xposition Yposition Zposition Xrotation Yrotation Zrotation
											JOINT mixamorig:LeftHandIndex4
											{
												OFFSET 2.774864 -0.000031 -0.000027
												CHANNELS 6 Xposition Yposition Zposition Xrotation Yrotation Zrotation
												End Site
												{
													OFFSET 277.486267 0.000000 -0.009857
												}
											}
										}
									}
								}
								JOINT mixamorig:LeftHandMiddle1
								{
									OFFSET 9.533394 0.000061 0.000044
									CHANNELS 6 Xposition Yposition Zposition Xrotation Yrotation Zrotation
									JOINT mixamorig:LeftHandMiddle2
									{
										OFFSET 3.699989 -0.000015 -0.000231
										CHANNELS 6 Xposition Yposition Zposition Xrotation Yrotation Zrotation
										JOINT mixamorig:LeftHandMiddle3
										{
											OFFSET 2.949997 -0.000015 -0.000059
											CHANNELS 6 Xposition Yposition Zposition Xrotation Yrotation Zrotation
											JOINT mixamorig:LeftHandMiddle4
											{
												OFFSET 2.952896 0.000031 0.000063
												CHANNELS 6 Xposition Yposition Zposition Xrotation Yrotation Zrotation
												End Site
												{
													OFFSET 295.289337 0.000000 0.022810
												}
											}
										}
									}
								}
								JOINT mixamorig:LeftHandRing1
								{
									OFFSET 9.104523 -0.042999 -1.865074
									CHANNELS 6 Xposition Yposition Zposition Xrotation Yrotation Zrotation
									JOINT mixamorig:LeftHandRing2
									{
										OFFSET 3.150009 -0.000031 0.000043
										CHANNELS 6 Xposition Yposition Zposition Xrotation Yrotation Zrotation
										JOINT mixamorig:LeftHandRing3
										{
											OFFSET 2.949982 -0.000015 0.000040
											CHANNELS 6 Xposition Yposition Zposition Xrotation Yrotation Zrotation
											JOINT mixamorig:LeftHandRing4
											{
												OFFSET 2.644348 0.000000 0.000057
												CHANNELS 6 Xposition Yposition Zposition Xrotation Yrotation Zrotation
												End Site
												{
													OFFSET 264.434631 0.000000 0.012105
												}
											}
										}
									}
								}
								JOINT mixamorig:LeftHandPinky1
								{
									OFFSET 8.077789 -0.486847 -3.806259
									CHANNELS 6 Xposition Yposition Zposition Xrotation Yrotation Zrotation
									JOINT mixamorig:LeftHandPinky2
									{
										OFFSET 3.599953 0.000031 0.014727
										CHANNELS 6 Xposition Yposition Zposition Xrotation Yrotation Zrotation
										JOINT mixamorig:LeftHandPinky3
										{
											OFFSET 2.100021 0.000015 0.007705
											CHANNELS 6 Xposition Yposition Zposition Xrotation Yrotation Zrotation
											JOINT mixamorig:LeftHandPinky4
											{
												OFFSET 2.125504 0.000031 0.007517
												CHANNELS 6 Xposition Yposition Zposition Xrotation Yrotation Zrotation
												End Site
												{
													OFFSET 212.550781 0.000000 0.625752
												}
											}
										}
									}
								}
							}
						}
					}
				}
			}
		}
	}
	JOINT mixamorig:RightUpLeg
	{
		OFFSET -8.207787 -6.751648 -1.599560
		CHANNELS 6 Xposition Yposition Zposition Xrotation Yrotation Zrotation
		JOINT mixamorig:RightLeg
		{
			OFFSET -0.000002 -44.370117 0.345942
			CHANNELS 6 Xposition Yposition Zposition Xrotation Yrotation Zrotation
			JOINT mixamorig:RightFoot
			{
				OFFSET 0.000003 -44.423679 -3.043532
				CHANNELS 6 Xposition Yposition Zposition Xrotation Yrotation Zrotation
				JOINT mixamorig:RightToeBase
				{
					OFFSET -0.000002 -8.728671 10.710558
					CHANNELS 6 Xposition Yposition Zposition Xrotation Yrotation Zrotation
					JOINT mixamorig:RightToe_End
					{
						OFFSET -0.000001 -0.000679 9.278119
						CHANNELS 6 Xposition Yposition Zposition Xrotation Yrotation Zrotation
						End Site
						{
							OFFSET 0.000000 -0.067690 927.812134
						}
					}
				}
			}
		}
	}
	JOINT mixamorig:LeftUpLeg
	{
		OFFSET 8.207793 -6.751686 -1.599556
		CHANNELS 6 Xposition Yposition Zposition Xrotation Yrotation Zrotation
		JOINT mixamorig:LeftLeg
		{
			OFFSET -0.000004 -44.370014 0.346954
			CHANNELS 6 Xposition Yposition Zposition Xrotation Yrotation Zrotation
			JOINT mixamorig:LeftFoot
			{
				OFFSET -0.000001 -44.423672 -3.044401
				CHANNELS 6 Xposition Yposition Zposition Xrotation Yrotation Zrotation
				JOINT mixamorig:LeftToeBase
				{
					OFFSET -0.000002 -8.728669 10.710558
					CHANNELS 6 Xposition Yposition Zposition Xrotation Yrotation Zrotation
					JOINT mixamorig:LeftToe_End
					{
						OFFSET -0.000003 -0.000679 9.278133
						CHANNELS 6 Xposition Yposition Zposition Xrotation Yrotation Zrotation
						End Site
						{
							OFFSET 0.000000 -0.068021 927.813477
						}
					}
				}
			}
		}
	}
}
MOTION
Frames: 3
Frame Time: 0.033333
0.000006 104.270477 1.554256 0.000010 0.000003 -0.000113 -0.000005 10.181587 0.131522 0.000001 -0.000003 0.000084 -0.000000 9.893967 -1.470711 0.000001 0.000000 -0.000000 -0.000000 9.220802 -1.370642 0.000000 -0.000000 -0.000000 0.000001 16.740433 -2.049030 0.000000 -0.000000 -0.000000 0.000000 9.617859 1.685014 0.000000 0.000000 0.000000 0.000002 22.037384 7.501101 0.000000 -0.000000 0.000000 -4.569968 11.014880 -2.160881 0.000008 0.000001 -0.000038 -10.592877 -0.524740 -2.231933 75.584554 24.041573 -18.752614 -27.841534 -0.000004 0.000546 -59.405106 109.444383 77.760884 -28.328833 0.000006 0.000029 -0.000321 -0.000046 0.000009 -2.464429 -1.573816 2.682362 -42.299915 -162.422650 4.055521 -3.215302 -1.872641 1.924657 160.731754 30.552351 -4.960476 -2.654945 -1.527925 1.513119 151.155775 24.596042 -48.177812 -2.018823 -1.152009 1.108061 -0.000002 -0.000001 0.000004 -9.108417 -0.517586 2.260166 105.986941 20.083961 -26.505930 -3.700092 0.000288 0.001553 101.315181 17.328929 -21.032254 -2.850087 0.000354 -0.000245 96.931668 12.941238 -14.591803 -2.772162 -0.000001 -0.000022 -0.000001 0.000000 -0.000000 -9.532612 0.000250 0.000232 89.898834 19.955385 -20.068038 -3.700084 0.000333 0.003963 88.613638 14.656587 -14.214776 -2.950070 0.000339 -0.001834 85.905058 11.379251 -10.591737 -2.946627 0.000002 -0.000157 0.000001 -0.000001 0.000001 -9.103717 -0.042776 -1.864891 85.833976 20.852451 -19.374615 -3.379359 0.000305 -0.000823 88.934616 12.031550 -11.828988 -2.889747 0.000349 0.000622 91.009655 6.176350 -6.331786 -2.638813 -0.000020 0.000937 0.000002 -0.000000 0.000002 -8.076752 -0.486404 -3.806092 73.056448 17.953419 -13.232810 -3.600031 0.000273 -0.003577 79.148123 8.006699 -6.328089 -2.099996 0.000318 -0.005559 81.050529 2.920138 -2.316174 -2.115769 -0.000056 -0.003678 0.000001 0.000002 -0.000006 4.570446 11.014691 -2.160851 -0.000018 0.000010 -0.000021 10.592400 -0.524475 -2.232345 74.264469 -12.256441 9.295531 27.841820 0.000076 -0.000198 96.480903 -70.875903 77.115479 28.328823 -0.000029 0.000021 0.000021 -0.000089 0.000000 2.466223 -1.576085 2.681846 5.810985 164.265804 -94.214496 3.217791 -1.871700 1.916377 165.093609 -30.965701 4.353660 2.656090 -1.528655 1.514472 143.328501 -26.426989 52.795877 2.020895 -1.154081 1.115151 -0.000003 0.000000 0.000001 9.109382 -0.517865 2.259732 83.803867 -18.723372 16.818274 3.700043 0.000151 -0.000465 82.236413 -16.857590 14.755934 2.850070 0.000159 0.000219 80.696902 -14.377557 12.230664 2.774881 -0.000031 -0.000025 -0.000000 0.000003 0.000002 9.533463 0.000195 -0.000071 84.147343 -17.797586 16.082182 3.700036 0.000175 -0.000372 84.395983 -14.370918 13.039480 2.950070 0.000139 -0.000196 83.592438 -17.132951 15.342230 2.952860 -0.000046 0.000065 -0.000001 0.000002 -0.000001 9.104581 -0.042873 -1.865217 80.463563 -16.883796 14.315009 3.150050 0.000178 -0.000083 84.588450 -13.235470 12.051811 2.950015 0.000170 -0.000068 85.964918 -14.267545 13.307246 2.644319 0.000030 0.000058 -0.000001 -0.000001 -0.000000 8.077827 -0.486745 -3.806403 69.130599 -17.778846 12.720893 3.600009 0.000166 0.014560 71.436573 -14.689126 10.968481 2.100038 0.000156 0.007545 74.320654 -13.774378 10.838894 2.125510 -0.000001 0.007511 -0.000001 -0.000001 0.000000 -8.207786 -6.751667 -1.599560 -0.077001 -0.000003 0.000080 -0.000002 -44.370110 0.345938 0.153719 -0.000000 -0.000000 0.000000 -44.423679 -3.043532 -0.076700 0.000000 -0.000002 -0.000006 -8.728667 10.710559 -0.000009 -0.000000 -0.000000 -0.000001 -0.000679 9.278123 0.000000 -0.000000 -0.000000 8.207792 -6.751710 -1.599556 -0.074518 -0.000003 0.000081 -0.000002 -44.370014 0.346960 0.148822 0.000002 0.000000 -0.000001 -44.423664 -3.044403 -0.074314 0.000000 -0.000002 -0.000004 -8.728671 10.710558 0.000007 -0.000000 -0.000000 0.000000 -0.000680 9.278137 -0.000000 0.000000 -0.000001 
0.000006 104.270477 1.554256 0.000010 0.000003 -0.000113 -0.000005 10.181587 0.131522 0.000001 -0.000003 0.000084 -0.000000 9.893967 -1.470711 0.000001 0.000000 -0.000000 -0.000000 9.220802 -1.370642 0.000000 -0.000000 -0.000000 0.000001 16.740433 -2.049030 0.000000 -0.000000 -0.000000 0.000000 9.617859 1.685014 0.000000 0.000000 0.000000 0.000002 22.037384 7.501101 0.000000 -0.000000 0.000000 -4.569968 11.014880 -2.160881 0.000008 0.000001 -0.000038 -10.592877 -0.524759 -2.231912 75.611294 27.606189 -21.583225 -27.841526 0.000034 0.000534 -58.493972 108.613730 75.869994 -28.328831 0.000019 0.000029 -0.000322 -0.000046 0.000008 -2.464449 -1.573736 2.682318 -49.091664 -168.053499 -13.047330 -3.215281 -1.872597 1.924651 153.610258 31.200540 2.021310 -2.654958 -1.527883 1.513084 145.889712 27.222211 -36.223826 -2.018834 -1.152032 1.108057 -0.000006 -0.000001 0.000002 -9.108389 -0.517541 2.260145 102.969869 15.257038 -19.163250 -3.700063 0.000323 0.001537 102.462413 12.097326 -15.003381 -2.850087 0.000369 -0.000240 100.871963 10.051875 -12.150616 -2.772154 -0.000015 -0.000018 -0.000000 -0.000001 -0.000001 -9.532595 0.000283 0.000219 87.600871 16.533306 -16.001342 -3.700075 0.000330 0.003951 88.140927 12.342911 -11.859707 -2.950067 0.000333 -0.001841 89.504547 11.385620 -11.281194 -2.946608 0.000014 -0.000156 -0.000002 0.000001 -0.000001 -9.103724 -0.042778 -1.864907 81.841895 19.798552 -17.165071 -3.379347 0.000302 -0.000836 87.500864 11.858191 -11.372363 -2.889775 0.000351 0.000629 93.667800 7.256211 -7.783579 -2.638798 -0.000000 0.000938 -0.000003 -0.000001 -0.000001 -8.076777 -0.486404 -3.806085 71.697117 18.703554 -13.457776 -3.600039 0.000257 -0.003572 76.386582 10.447643 -7.939478 -2.100013 0.000311 -0.005532 81.285480 6.367367 -5.276585 -2.115765 -0.000038 -0.003677 0.000001 0.000003 -0.000005 4.570446 11.014691 -2.160851 -0.000018 0.000010 -0.000021 10.592375 -0.524494 -2.232329 74.267591 -2.083649 1.577946 27.841818 0.000056 -0.000219 96.833491 -72.061699 78.685412 28.328825 -0.000013 0.000024 0.000019 -0.000089 -0.000000 2.466264 -1.575967 2.681797 15.518407 181.504846 -124.630913 3.217889 -1.871858 1.916409 170.068719 -19.973922 41.607668 2.656094 -1.528674 1.514502 144.403586 -25.303486 61.637184 2.020891 -1.154081 1.115145 0.000001 -0.000001 0.000002 9.109414 -0.517864 2.259728 89.521397 -23.134452 22.934100 3.700054 0.000163 -0.000465 87.477771 -14.486937 13.885508 2.850049 0.000202 0.000198 86.456753 -10.138629 9.531951 2.774863 -0.000045 -0.000029 -0.000000 -0.000001 0.000001 9.533474 0.000194 -0.000084 85.374455 -21.098874 19.484894 3.700023 0.000191 -0.000362 88.431894 -10.605561 10.318213 2.950037 0.000205 -0.000211 88.540582 -9.883476 9.638835 2.952880 -0.000014 0.000065 0.000001 -0.000002 0.000001 9.104603 -0.042865 -1.865224 82.444372 -20.077080 17.633423 3.150052 0.000207 -0.000095 88.193342 -12.259642 11.883570 2.950013 0.000194 -0.000089 87.991162 -9.610079 9.282039 2.644315 0.000014 0.000052 0.000000 -0.000004 0.000001 8.077841 -0.486755 -3.806410 72.289691 -20.631853 15.601738 3.600012 0.000168 0.014567 73.236642 -16.356881 12.590077 2.100037 0.000155 0.007537 75.701521 -11.990942 9.709480 2.125497 0.000002 0.007523 -0.000004 0.000002 -0.000000 -8.207786 -6.751667 -1.599560 -0.077001 -0.000003 0.000080 -0.000002 -44.370110 0.345938 0.153719 -0.000000 -0.000000 0.000000 -44.423679 -3.043532 -0.076700 0.000000 -0.000002 -0.000006 -8.728667 10.710559 -0.000009 -0.000000 -0.000000 -0.000001 -0.000679 9.278123 0.000000 -0.000000 -0.000000 8.207792 -6.751710 -1.599556 -0.074518 -0.000003 0.000081 -0.000002 -44.370014 0.346960 0.148822 0.000002 0.000000 -0.000001 -44.423664 -3.044403 -0.074314 0.000000 -0.000002 -0.000004 -8.728671 10.710558 0.000007 -0.000000 -0.000000 0.000000 -0.000680 9.278137 -0.000000 0.000000 -0.000001 
0.000006 104.270477 1.554256 0.000010 0.000003 -0.000113 -0.000005 10.181587 0.131522 0.000001 -0.000003 0.000084 -0.000000 9.893967 -1.470711 0.000001 0.000000 -0.000000 -0.000000 9.220802 -1.370642 0.000000 -0.000000 -0.000000 0.000001 16.740433 -2.049030 0.000000 -0.000000 -0.000000 0.000000 9.617859 1.685014 0.000000 0.000000 0.000000 0.000002 22.037384 7.501101 0.000000 -0.000000 0.000000 -4.569968 11.014880 -2.160881 0.000008 0.000001 -0.000038 -10.592876 -0.524771 -2.231897 74.888790 31.283632 -24.203585 -27.841534 0.000004 0.000544 -56.919590 106.017752 71.473989 -28.328835 0.000006 0.000024 -0.000321 -0.000045 0.000007 -2.464406 -1.573823 2.682362 -41.954557 -160.637293 4.308367 -3.215288 -1.872590 1.924671 154.566675 30.887253 -0.581315 -2.654958 -1.527880 1.513072 146.127335 27.320610 -34.581733 -2.018822 -1.152011 1.108056 -0.000005 0.000002 0.000003 -9.108375 -0.517562 2.260149 105.556086 15.470785 -20.336822 -3.700061 0.000327 0.001545 104.574943 12.176316 -15.677632 -2.850097 0.000366 -0.000236 101.852402 9.719834 -11.955520 -2.772178 0.000000 -0.000016 0.000000 0.000001 -0.000000 -9.532571 0.000268 0.000215 89.196533 16.102149 -16.021337 -3.700065 0.000332 0.003944 89.196110 11.775940 -11.519958 -2.950036 0.000332 -0.001818 89.753959 10.791309 -10.738334 -2.946631 0.000003 -0.000157 0.000003 0.000000 -0.000000 -9.103687 -0.042779 -1.864905 83.105637 18.941358 -16.781232 -3.379331 0.000308 -0.000833 88.543560 11.633958 -11.361176 -2.889760 0.000348 0.000640 94.154568 7.099183 -7.681091 -2.638811 -0.000027 0.000939 0.000002 -0.000000 0.000001 -8.076750 -0.486415 -3.806089 72.535414 18.126391 -13.236609 -3.600051 0.000240 -0.003575 76.722962 10.306615 -7.876029 -2.100009 0.000311 -0.005534 81.795777 6.119047 -5.109705 -2.115767 -0.000056 -0.003676 -0.000001 0.000003 -0.000007 4.570446 11.014691 -2.160851 -0.000018 0.000010 -0.000021 10.592388 -0.524482 -2.232340 73.034161 -8.561703 6.344710 27.841822 0.000065 -0.000199 97.297650 -73.685980 80.818131 28.328815 -0.000029 0.000022 0.000017 -0.000089 0.000000 2.466237 -1.575904 2.681803 25.498039 193.978752 -146.343715 3.217886 -1.871865 1.916445 172.772353 -15.829310 50.636755 2.656122 -1.528682 1.514506 144.814805 -25.132963 61.617042 2.020887 -1.154066 1.115144 -0.000000 0.000003 0.000004 9.109411 -0.517862 2.259756 94.239474 -25.534252 27.411252 3.700062 0.000170 -0.000446 97.612665 -17.490282 19.956558 2.850054 0.000248 0.000224 98.503089 -12.132456 14.061501 2.774886 -0.000029 -0.000020 0.000003 -0.000002 0.000001 9.533484 0.000204 -0.000069 88.822212 -21.490946 21.054422 3.700062 0.000201 -0.000378 96.231293 -11.550397 12.866648 2.950058 0.000223 -0.000207 98.083907 -10.525602 12.118419 2.952865 -0.000014 0.000058 0.000002 -0.000001 0.000000 9.104609 -0.042865 -1.865212 84.394938 -20.845128 18.938369 3.150057 0.000216 -0.000091 95.300912 -13.722034 15.041589 2.950002 0.000211 -0.000089 96.648912 -10.322599 11.589539 2.644317 0.000013 0.000056 -0.000003 0.000000 0.000000 8.077854 -0.486750 -3.806394 71.737948 -20.911983 15.653846 3.600015 0.000156 0.014586 76.972134 -17.216330 14.152029 2.100062 0.000191 0.007546 82.948788 -12.819807 11.773527 2.125498 -0.000014 0.007508 -0.000002 -0.000001 -0.000001 -8.207786 -6.751667 -1.599560 -0.077001 -0.000003 0.000080 -0.000002 -44.370110 0.345938 0.153719 -0.000000 -0.000000 0.000000 -44.423679 -3.043532 -0.076700 0.000000 -0.000002 -0.000006 -8.728667 10.710559 -0.000009 -0.000000 -0.000000 -0.000001 -0.000679 9.278123 0.000000 -0.000000 -0.000000 8.207792 -6.751710 -1.599556 -0.074518 -0.000003 0.000081 -0.000002 -44.370014 0.346960 0.148822 0.000002 0.000000 -0.000001 -44.423664 -3.044403 -0.074314 0.000000 -0.000002 -0.000004 -8.728671 10.710558 0.000007 -0.000000 -0.000000 0.000000 -0.000680 9.278137 -0.000000 0.000000 -0.000001 
